<?xml version="1.0" ?><!DOCTYPE svg  PUBLIC '-//W3C//DTD SVG 1.1//EN'  'http://www.w3.org/Graphics/SVG/1.1/DTD/svg11.dtd'><svg enable-background="new 0 0 512 512" height="512px" id="Layer_1" version="1.1" viewBox="0 0 512 512" width="512px" xml:space="preserve" xmlns="http://www.w3.org/2000/svg" xmlns:xlink="http://www.w3.org/1999/xlink"><g><path d="M224,0c-17.672,0-32,14.312-32,32v160h-32V32c0-17.688-14.328-32-32-32S96,14.312,96,32v160H64V32C64,14.312,49.672,0,32,0   S0,14.312,0,32v192c0,17.688,14.328,32,32,32h64v224c0,17.688,14.328,32,32,32s32-14.312,32-32V256h64c17.672,0,32-14.312,32-32V32   C256,14.312,241.672,0,224,0z"/><path d="M416,0c-53.017,0-96,42.969-96,96c0,41.75,26.797,76.906,64,90.125V480c0,17.688,14.327,32,32,32c17.672,0,32-14.312,32-32   V186.125c37.202-13.219,64-48.375,64-90.125C512,42.969,469.016,0,416,0z"/></g></svg>